<?xml version="1.0" standalone="no"?>
<!DOCTYPE svg PUBLIC "-//W3C//DTD SVG 20010904//EN"
 "http://www.w3.org/TR/2001/REC-SVG-20010904/DTD/svg10.dtd">
<svg version="1.0" xmlns="http://www.w3.org/2000/svg"
 width="1080.000000pt" height="1080.000000pt" viewBox="0 0 1080.000000 1080.000000"
 preserveAspectRatio="xMidYMid meet">
<metadata>
Created by potrace 1.14, written by Peter Selinger 2001-2017
</metadata>
<g transform="translate(0.000000,1080.000000) scale(0.100000,-0.100000)"
fill="#000000" stroke="none">
<path d="M0 5400 l0 -5400 5400 0 5400 0 0 5400 0 5400 -5400 0 -5400 0 0
-5400z m8831 4940 c15 -32 58 -170 108 -345 44 -154 50 -384 16 -647 -15 -119
-39 -206 -92 -348 -184 -487 -557 -880 -1065 -1125 -462 -221 -940 -347 -1638
-430 -792 -94 -917 -121 -1138 -243 -181 -101 -309 -216 -416 -377 -114 -169
-159 -313 -159 -500 0 -123 21 -202 89 -338 96 -190 216 -314 579 -603 182
-144 332 -272 383 -328 149 -164 232 -340 232 -494 0 -64 -33 -173 -72 -237
-97 -160 -240 -260 -498 -348 -341 -117 -875 -135 -1244 -41 -348 88 -688 252
-939 452 -163 129 -322 287 -413 408 -102 136 -244 359 -244 384 0 10 -7 23
-15 30 -8 7 -15 18 -15 24 0 6 -7 25 -16 41 -26 49 -101 250 -128 343 -70 244
-91 419 -83 697 6 223 30 369 102 620 56 195 104 308 202 485 207 372 448 632
811 874 328 218 778 395 1326 522 183 42 688 128 881 149 77 9 194 22 260 30
596 71 599 72 888 115 601 91 991 191 1315 339 138 63 302 158 397 230 33 25
111 95 174 156 148 144 267 319 345 508 19 48 44 46 67 -3z m-2206 -3380 c224
-32 462 -102 682 -199 151 -67 441 -264 614 -417 155 -138 345 -367 449 -544
221 -372 314 -654 341 -1034 21 -306 -22 -653 -115 -931 -126 -375 -416 -783
-746 -1048 -197 -159 -479 -329 -725 -438 -535 -236 -977 -334 -2370 -524
-589 -80 -1298 -225 -1585 -323 -514 -177 -868 -438 -1070 -793 -29 -50 -67
-131 -85 -181 l-32 -91 -18 29 c-10 16 -29 46 -42 67 -35 55 -109 286 -127
392 -21 128 -28 340 -17 485 22 273 140 605 298 838 349 515 918 853 1755
1042 199 45 537 104 926 160 191 28 412 62 492 75 426 74 688 183 863 359 98
99 192 277 216 410 19 103 14 301 -10 392 -62 237 -209 439 -452 619 -168 125
-172 128 -157 133 8 3 0 10 -18 16 -77 27 -424 356 -511 484 -110 164 -149
311 -117 446 39 165 123 283 276 385 55 37 167 91 189 91 7 0 30 9 52 20 62
32 316 80 474 90 153 9 475 3 570 -10z"/>
</g>
</svg>
